<?xml version="1.0" encoding="utf-8"?>
<!-- Generator: Adobe Illustrator 25.3.1, SVG Export Plug-In . SVG Version: 6.00 Build 0)  -->
<svg version="1.1" id="Layer_1" xmlns="http://www.w3.org/2000/svg" xmlns:xlink="http://www.w3.org/1999/xlink" x="0px" y="0px"
	 viewBox="0 0 64 68.1" style="enable-background:new 0 0 64 68.1;" xml:space="preserve">
<style type="text/css">
	.st0{fill:url(#SVGID_1_);stroke:#E6EFFC;stroke-width:0.5;stroke-miterlimit:10;}
</style>
<linearGradient id="SVGID_1_" gradientUnits="userSpaceOnUse" x1="19.9432" y1="46.8527" x2="41.2314" y2="9.9564" gradientTransform="matrix(1 0 0 -1 0 66)">
	<stop  offset="0" style="stop-color:#F3F7FE"/>
	<stop  offset="0.45" style="stop-color:#F3F7FE"/>
	<stop  offset="1" style="stop-color:#DEEAFB"/>
</linearGradient>
<path class="st0" d="M50.6,31.4h-0.4c1.7-7.2-2.7-14.5-9.9-16.2c-5.6-1.4-11.5,1-14.6,6c-4.3-2.5-9.8-1.1-12.3,3.1
	c-0.8,1.4-1.2,2.9-1.3,4.5c0,0.5,0,1,0.1,1.5c-5.2,1-8.6,6.1-7.6,11.3c0.9,4.5,4.8,7.7,9.4,7.8c0.2,0,0.4,0,0.6,0l0,0h35.8
	c4.9,0,9-4,9-9S55.5,31.4,50.6,31.4z">
<animateTransform  accumulate="none" additive="replace" attributeName="transform" calcMode="linear" dur="7s" fill="remove" repeatCount="indefinite" restart="always" type="translate" values="-3 0; 3 0; -3 0">
		</animateTransform>
</path>
</svg>
