<?xml version="1.0" encoding="utf-8"?>
<!-- Generator: Adobe Illustrator 25.3.1, SVG Export Plug-In . SVG Version: 6.00 Build 0)  -->
<svg version="1.1" id="Layer_1" xmlns="http://www.w3.org/2000/svg" xmlns:xlink="http://www.w3.org/1999/xlink" x="0px" y="0px"
	 viewBox="0 0 73.4 78.1" style="enable-background:new 0 0 73.4 78.1;" xml:space="preserve">
<style type="text/css">
	.st0{fill:url(#SVGID_1_);stroke:#F8AF18;stroke-width:0.5;stroke-miterlimit:10;}
	.st1{fill:none;stroke:#FBBF24;stroke-width:2;stroke-linecap:round;stroke-miterlimit:10;}
	.st2{fill:url(#SVGID_2_);stroke:#E6EFFC;stroke-width:0.5;stroke-miterlimit:10;}
	.st3{fill:none;stroke:url(#SVGID_3_);stroke-width:2;stroke-linecap:round;stroke-miterlimit:10;}
	.st4{fill:none;stroke:url(#SVGID_4_);stroke-width:2;stroke-linecap:round;stroke-miterlimit:10;}
	.st5{fill:none;stroke:url(#SVGID_5_);stroke-width:2;stroke-linecap:round;stroke-miterlimit:10;}
	.st6{fill:url(#SVGID_6_);stroke:#F6A823;stroke-width:0.5;stroke-miterlimit:10;}
	.st7{display:none;fill:url(#SVGID_7_);stroke:#F8AF18;stroke-width:0.5;stroke-miterlimit:10;}
</style>
<linearGradient id="SVGID_1_" gradientUnits="userSpaceOnUse" x1="15.1694" y1="48.5906" x2="22.8956" y2="35.2088" gradientTransform="matrix(1 0 0 -1 0 66)">
	<stop  offset="0" style="stop-color:#FBBF24"/>
	<stop  offset="0.45" style="stop-color:#FBBF24"/>
	<stop  offset="1" style="stop-color:#F59E0B"/>
</linearGradient>
<circle class="st0" cx="19" cy="24.1" r="7.7"/>
<path class="st1" d="M19,11.2V6.3 M19,41.9V37 M28.1,15l3.5-3.5 M6.5,36.7l3.5-3.5 M9.9,15l-3.5-3.5 M31.6,36.7l-3.5-3.5 M1.3,24.1
	h4.9 M36.8,24.1h-4.9">
<animateTransform  accumulate="none" additive="replace" attributeName="transform" calcMode="linear" dur="45s" fill="remove" repeatCount="indefinite" restart="always" type="rotate" values="0 19 24; 360 19 24">
		</animateTransform>
</path>
<linearGradient id="SVGID_2_" gradientUnits="userSpaceOnUse" x1="24.5734" y1="45.0433" x2="50.2643" y2="0.5166" gradientTransform="matrix(1 0 0 -1 0 66)">
	<stop  offset="0" style="stop-color:#F3F7FE"/>
	<stop  offset="0.45" style="stop-color:#F3F7FE"/>
	<stop  offset="1" style="stop-color:#DEEAFB"/>
</linearGradient>
<path class="st2" d="M61.5,35.7H61c2.1-8.7-3.2-17.5-11.9-19.6c-6.8-1.7-13.9,1.3-17.6,7.2c-5.1-3-11.8-1.4-14.8,3.8
	c-1,1.7-1.5,3.6-1.5,5.5c0,0.6,0.1,1.2,0.2,1.8C9,35.6,5,41.7,6.2,48c1.1,5.4,5.8,9.3,11.3,9.4c0.3,0,0.5,0,0.8,0l0,0h43.3
	c6,0,10.8-4.8,10.8-10.8S67.5,35.7,61.5,35.7z"/>
<linearGradient id="SVGID_3_" gradientUnits="userSpaceOnUse" x1="24.757" y1="12.1531" x2="28.7575" y2="5.2134" gradientTransform="matrix(1 0 0 -1 0 66)">
	<stop  offset="0" style="stop-color:#4286EE"/>
	<stop  offset="0.45" style="stop-color:#4286EE"/>
	<stop  offset="1" style="stop-color:#0950BC"/>
</linearGradient>
<line class="st3" x1="27.4" y1="53.5" x2="26.2" y2="61.1">
<animateTransform  accumulate="none" additive="replace" attributeName="transform" calcMode="linear" dur="0.7s" fill="remove" repeatCount="indefinite" restart="always" type="translate" values="1 -5; -2 10">
	</animateTransform>
<animate  accumulate="none" additive="replace" attributeName="opacity" calcMode="linear" dur="0.7s" fill="remove" repeatCount="indefinite" restart="always" values="0;1;1;0">
	</animate>
</line>
<linearGradient id="SVGID_4_" gradientUnits="userSpaceOnUse" x1="35.5717" y1="12.1531" x2="39.5722" y2="5.2134" gradientTransform="matrix(1 0 0 -1 0 66)">
	<stop  offset="0" style="stop-color:#4286EE"/>
	<stop  offset="0.45" style="stop-color:#4286EE"/>
	<stop  offset="1" style="stop-color:#0950BC"/>
</linearGradient>
<line class="st4" x1="38.2" y1="53.5" x2="37" y2="61.1">
<animateTransform  accumulate="none" additive="replace" attributeName="transform" begin="-0.4s" calcMode="linear" dur="0.7s" fill="remove" repeatCount="indefinite" restart="always" type="translate" values="1 -5; -2 10">
	</animateTransform>
<animate  accumulate="none" additive="replace" attributeName="opacity" begin="-0.4s" calcMode="linear" dur="0.7s" fill="remove" repeatCount="indefinite" restart="always" values="0;1;1;0">
	</animate>
</line>
<linearGradient id="SVGID_5_" gradientUnits="userSpaceOnUse" x1="46.3863" y1="12.1531" x2="50.3869" y2="5.2134" gradientTransform="matrix(1 0 0 -1 0 66)">
	<stop  offset="0" style="stop-color:#4286EE"/>
	<stop  offset="0.45" style="stop-color:#4286EE"/>
	<stop  offset="1" style="stop-color:#0950BC"/>
</linearGradient>
<line class="st5" x1="49" y1="53.5" x2="47.8" y2="61.1">
<animateTransform  accumulate="none" additive="replace" attributeName="transform" begin="-0.2s" calcMode="linear" dur="0.7s" fill="remove" repeatCount="indefinite" restart="always" type="translate" values="1 -5; -2 10">
	</animateTransform>
<animate  accumulate="none" additive="replace" attributeName="opacity" begin="-0.2s" calcMode="linear" dur="0.7s" fill="remove" repeatCount="indefinite" restart="always" values="0;1;1;0">
	</animate>
</line>
<linearGradient id="SVGID_6_" gradientUnits="userSpaceOnUse" x1="30.9908" y1="20.4558" x2="44.9293" y2="-3.7124" gradientTransform="matrix(1 0 0 -1 0 66)">
	<stop  offset="0" style="stop-color:#F7B23B"/>
	<stop  offset="0.45" style="stop-color:#F7B23B"/>
	<stop  offset="1" style="stop-color:#F59E0B"/>
</linearGradient>
<polygon class="st6" points="36,42.6 29.8,61.2 36,61.2 32.9,76.6 48.4,55 39.1,55 45.3,42.6 ">
<animate  accumulate="none" additive="replace" attributeName="opacity" calcMode="linear" dur="2s" fill="remove" repeatCount="indefinite" restart="always" values="1; 1; 1; 1; 1; 1; 0.1; 1; 0.1; 1; 1; 0.1; 1; 0.1; 1">
	</animate>
</polygon>
<linearGradient id="SVGID_7_" gradientUnits="userSpaceOnUse" x1="16.4995" y1="46.3308" x2="21.5005" y2="37.6692" gradientTransform="matrix(1 0 0 -1 0 66)">
	<stop  offset="0" style="stop-color:#FBBF24"/>
	<stop  offset="0.45" style="stop-color:#FBBF24"/>
	<stop  offset="1" style="stop-color:#F59E0B"/>
</linearGradient>
<circle class="st7" cx="19" cy="24" r="5"/>
</svg>
